<svg id="Layer_1" data-name="Layer 1" xmlns="http://www.w3.org/2000/svg" xmlns:xlink="http://www.w3.org/1999/xlink" viewBox="0 0 93.06 69.75"><defs><style>.cls-1,.cls-4,.cls-5,.cls-6,.cls-7,.cls-8,.cls-9{fill:none;}.cls-2{fill:#cb3533;}.cls-3{fill:#fff;stroke:#231f20;stroke-width:0.18px;}.cls-4{stroke:#f1eb4b;}.cls-4,.cls-5,.cls-7,.cls-8,.cls-9{stroke-width:3.52px;}.cls-5{stroke:#2f68b2;}.cls-6,.cls-9{stroke:#f5eb0e;}.cls-6{stroke-width:3.34px;}.cls-7{stroke:#119948;}.cls-8{stroke:#c93a28;}</style><symbol id="Arrow_24" data-name="Arrow 24" viewBox="0 0 21.35 35.87"><rect class="cls-1" width="21.35" height="35.87"/><polygon class="cls-2" points="0 35.87 10.35 17.93 0 0 10.99 0 21.35 17.93 10.99 35.87 0 35.87"/></symbol></defs><title>logo-small</title><path class="cls-3" d="M2.6-16" transform="translate(-4.27 -3.69)"/><use id="Arrow_24-3" data-name="Arrow 24" width="21.35" height="35.87" transform="translate(55.88 40.77) rotate(-45) scale(0.27 0.16)" xlink:href="#Arrow_24"/><path class="cls-4" d="M78.08,53.37c0,1.37-.75,2.47-1.66,2.47h-24c-.91,0-1.66-1.1-1.66-2.47V34.68a2.51,2.51,0,0,1,1.66-2.63h24a2.51,2.51,0,0,1,1.66,2.63Z" transform="translate(-4.27 -3.69)"/><path class="cls-5" d="M60.55,36.49a3.54,3.54,0,0,1-3.32,3.8H9.35A3.49,3.49,0,0,1,6,36.65V9.09A3.49,3.49,0,0,1,9.35,5.45H57.23a3.45,3.45,0,0,1,3.32,3.48Z" transform="translate(-4.27 -3.69)"/><line class="cls-6" x1="51.21" y1="28.37" x2="61.74" y2="28.37"/><path class="cls-7" d="M60.54,69.22c0,1.36-.74,2.46-1.66,2.46H34.94c-.92,0-1.66-1.1-1.66-2.46V50.52c0-1.36.74-2.46,1.66-2.46H58.88c.92,0,1.66,1.1,1.66,2.46Z" transform="translate(-4.27 -3.69)"/><path class="cls-8" d="M95.57,37.82c0,1.37-.74,2.47-1.66,2.47H70c-.92,0-1.66-1.1-1.66-2.63V19c0-1.2.74-2.31,1.66-2.31H93.91c.92,0,1.66,1.11,1.66,2.47Z" transform="translate(-4.27 -3.69)"/><line class="cls-9" x1="73.81" y1="32.02" x2="73.81" y2="42.54"/><line class="cls-9" x1="46.59" y1="39.47" x2="46.59" y2="49.99"/></svg>