<svg id="Layer_1" data-name="Layer 1" xmlns="http://www.w3.org/2000/svg" xmlns:xlink="http://www.w3.org/1999/xlink" viewBox="0 0 280.76 69.75"><defs><style>.cls-1,.cls-4,.cls-5,.cls-6,.cls-7,.cls-8,.cls-9{fill:none;}.cls-2{fill:#cb3533;}.cls-3{fill:#fff;stroke:#231f20;stroke-width:0.18px;}.cls-4{stroke:#f1eb4b;}.cls-4,.cls-5,.cls-7,.cls-8,.cls-9{stroke-width:3.52px;}.cls-5{stroke:#2f68b2;}.cls-6,.cls-9{stroke:#f5eb0e;}.cls-6{stroke-width:3.34px;}.cls-7{stroke:#119948;}.cls-8{stroke:#c93a28;}.cls-10{font-size:25.85px;fill:#333;font-family:KeepCalm, Keep Calm;}</style><symbol id="Arrow_24" data-name="Arrow 24" viewBox="0 0 21.35 35.87"><rect class="cls-1" width="21.35" height="35.87"/><polygon class="cls-2" points="0 35.87 10.35 17.93 0 0 10.99 0 21.35 17.93 10.99 35.87 0 35.87"/></symbol></defs><title>logo</title><path class="cls-3" d="M1.1-16" transform="translate(-2.77 -3.69)"/><use id="Arrow_24-3" data-name="Arrow 24" width="21.35" height="35.87" transform="translate(55.88 40.77) rotate(-45) scale(0.27 0.16)" xlink:href="#Arrow_24"/><path class="cls-4" d="M76.58,53.37c0,1.37-.75,2.47-1.66,2.47H51c-.91,0-1.66-1.1-1.66-2.47V34.68A2.51,2.51,0,0,1,51,32.05h24a2.51,2.51,0,0,1,1.66,2.63Z" transform="translate(-2.77 -3.69)"/><path class="cls-5" d="M59.05,36.49a3.54,3.54,0,0,1-3.32,3.8H7.85a3.49,3.49,0,0,1-3.32-3.64V9.09A3.49,3.49,0,0,1,7.85,5.45H55.73a3.45,3.45,0,0,1,3.32,3.48Z" transform="translate(-2.77 -3.69)"/><line class="cls-6" x1="51.21" y1="28.37" x2="61.74" y2="28.37"/><path class="cls-7" d="M59,69.22c0,1.36-.74,2.46-1.66,2.46H33.44c-.92,0-1.66-1.1-1.66-2.46V50.52c0-1.36.74-2.46,1.66-2.46H57.38c.92,0,1.66,1.1,1.66,2.46Z" transform="translate(-2.77 -3.69)"/><path class="cls-8" d="M94.07,37.82c0,1.37-.74,2.47-1.66,2.47H68.47c-.92,0-1.66-1.1-1.66-2.63V19c0-1.2.74-2.31,1.66-2.31H92.41c.92,0,1.66,1.11,1.66,2.47Z" transform="translate(-2.77 -3.69)"/><line class="cls-9" x1="73.81" y1="32.02" x2="73.81" y2="42.54"/><line class="cls-9" x1="46.59" y1="39.47" x2="46.59" y2="49.99"/><text class="cls-10" transform="translate(95.86 63.02)">OnlineSpaces</text></svg>